<svg xmlns="http://www.w3.org/2000/svg" width="240" height="240" viewBox="0 0 240 240" shape-rendering="crispEdges">
  <!-- Fond de la grille -->
  <rect x="0" y="0" width="240" height="240" fill="#FFFFFF"/>

  <!-- Lignes de la grille -->
  <g stroke="#C7C4D8" stroke-width="2" fill="none">
    <!-- Verticales -->
    <path d="M0 0 V240 M40 0 V240 M80 0 V240 M120 0 V240 M160 0 V240 M200 0 V240 M240 0 V240"/>
    <!-- Horizontales -->
    <path d="M0 0 H240 M0 40 H240 M0 80 H240 M0 120 H240 M0 160 H240 M0 200 H240 M0 240 H240"/>
  </g>

  <!-- Cellules vivantes -->
  <g fill="#000000">
    <rect x="41" y="81" width="38" height="38"/>
    <rect x="81" y="41" width="38" height="38"/>
    <rect x="121" y="41" width="38" height="38"/>
    <rect x="161" y="81" width="38" height="38"/>
    <rect x="161" y="121" width="38" height="38"/>
    <rect x="121" y="161" width="38" height="38"/>
    <rect x="81" y="121" width="38" height="38"/>
  </g>
</svg>
